<svg viewBox="0 0 16 16" xmlns="http://www.w3.org/2000/svg" class="c-jTwhQQ c-jTwhQQ-idHQeta-css"><path d="M1.58325 14.4166H1.08325V15.6237L1.93681 14.7701L1.58325 14.4166ZM4.04036 11.9595L4.39391 12.313L4.04036 11.9595ZM2.58325 2.08325H13.4166V1.08325H2.58325V2.08325ZM13.9166 2.58325V10.6666H14.9166V2.58325H13.9166ZM2.08325 14.4166V2.58325H1.08325V14.4166H2.08325ZM13.4166 11.1666H4.74746V12.1666H13.4166V11.1666ZM3.68681 11.6059L1.2297 14.063L1.93681 14.7701L4.39391 12.313L3.68681 11.6059ZM4.74746 11.1666C4.34964 11.1666 3.96811 11.3246 3.68681 11.6059L4.39391 12.313C4.48768 12.2193 4.61486 12.1666 4.74746 12.1666V11.1666ZM13.9166 10.6666C13.9166 10.9427 13.6927 11.1666 13.4166 11.1666V12.1666C14.245 12.1666 14.9166 11.495 14.9166 10.6666H13.9166ZM13.4166 2.08325C13.6927 2.08325 13.9166 2.30711 13.9166 2.58325H14.9166C14.9166 1.75483 14.245 1.08325 13.4166 1.08325V2.08325ZM2.58325 1.08325C1.75483 1.08325 1.08325 1.75482 1.08325 2.58325H2.08325C2.08325 2.30711 2.30711 2.08325 2.58325 2.08325V1.08325Z" fill="currentColor"/></svg>